{"title":"2001.A.Space.Odyssey.DVDRIP-ZEKTORM","uid":4625075,"size":752741478,"categoryP":"video","categoryS":"movies","magnet":"?xt=urn:btih:22c9514010baaff33571af6c8aca0ccf8d055f47&amp;dn=2001.A.Space.Odyssey.DVDRIP-ZEKTORM&amp;tr=udp%3A%2F%2Ftracker.openbittorrent.com%3A80&amp;tr=udp%3A%2F%2Fopen.demonii.com%3A1337&amp;tr=udp%3A%2F%2Ftracker.coppersurfer.tk%3A6969&amp;tr=udp%3A%2F%2Fexodus.desync.com%3A6969","seeders":1,"leechers":0,"uploader":"blowley","files":4,"time":1231181081,"description":"Title                            : 2001: A Space Odyssey \nYear                             : 1968\nGenre                            : Adventure | Mystery | Sci-Fi\niMDB Rate                        : User Rating: 8.4/10   129,794 votes     \niMDB URL                         : http://www.imdb.com/title/tt0062622/\nAwards                           : Won Oscar. Another 10 wins &amp; 6 nominations \n\nComplete name                    : 2001.A.Space.Odyssey.DVDRIP-ZEKTORM.mp4\nFormat                           : MPEG-4\nFormat profile                   : Base Media\nCodec ID                         : isom\nFile size                        : 700 MiB\nDuration                         : 2h 15mn\nOverall bit rate                 : 720 Kbps\nSubtitles                        : English, Spanish, Portuguese, Hebrew, Polish, Greek, \n                                   Czech, Turkish, Hungarian, Hrvatski (Format: VobSub)\nSource                           : DVD PAL\nEncoded date                     : UTC 2009-01-04 06:06:00\n\nVideo\nFormat                           : AVC\nFormat/Info                      : Advanced Video Codec\nFormat profile                   : &lt;a class=&quot;__cf_email__&quot; href=&quot;/cdn-cgi/l/email-protection&quot; data-cfemail=&quot;a7efcec0cfe7eb938996&quot;&gt;[email&amp;#160;protected]&lt;/a&gt;&lt;script cf-hash='f9e31' type=&quot;text/javascript&quot;&gt;\n/* &lt;![CDATA[ */!function(){try{var t=&quot;currentScript&quot;in document?document.currentScript:function(){for(var t=document.getElementsByTagName(&quot;script&quot;),e=t.length;e--;)if(t[e].getAttribute(&quot;cf-hash&quot;))return t[e]}();if(t&amp;&amp;t.previousSibling){var e,r,n,i,c=t.previousSibling,a=c.getAttribute(&quot;data-cfemail&quot;);if(a){for(e=&quot;&quot;,r=parseInt(a.substr(0,2),16),n=2;a.length-n;n+=2)i=parseInt(a.substr(n,2),16)^r,e+=String.fromCharCode(i);e=document.createTextNode(e),c.parentNode.replaceChild(e,c)}}}catch(u){}}();/* ]]&gt; */&lt;/script&gt;\nFormat settings, CABAC           : Yes\nFormat settings, ReFrames        : 16 frames\nCodec ID                         : avc1\nCodec ID/Info                    : Advanced Video Coding\nDuration                         : 2h 15mn\nBit rate mode                    : Variable\nBit rate                         : 637 Kbps\nMaximum bit rate                 : 4243 Kbps\nWidth                            : 704 pixels\nHeight                           : 464 pixels\nDisplay aspect ratio             : 2.2\nFrame rate mode                  : Constant\nFrame rate                       : 25.000 fps\nResolution                       : 24 bits\nColorimetry                      : 4:2:0\nScan type                        : Progressive\nBits/(Pixel*Frame)               : 0.078\nStream size                      : 619 MiB (88%)\nTitle                            : Video\nWriting library                  : x264 core 60 r900 a9af942\n\nAudio\nFormat                           : AAC\nFormat/Info                      : Advanced Audio Codec\nFormat version                   : Version 4\nFormat profile                   : LC\nFormat settings, SBR             : Yes\nFormat settings, PS              : No\nCodec ID                         : 40\nDuration                         : 2h 15mn\nBit rate mode                    : Variable\nBit rate                         : 80.6 Kbps\nMaximum bit rate                 : 108 Kbps\nChannel(s)                       : 2 channels\nChannel positions                : L R\nSampling rate                    : 48.0 KHz\nResolution                       : 16 bits\nStream size                      : 78.3 MiB (11%)\nTitle                            : English\nLanguage                         : English\n\nNotes                            : Convert to DVD with Nero","torrent":{"xt":"urn:btih:22c9514010baaff33571af6c8aca0ccf8d055f47","amp;dn":"2001.A.Space.Odyssey.DVDRIP-ZEKTORM","amp;tr":["udp%3A%2F%2Ftracker.openbittorrent.com%3A80","udp%3A%2F%2Fopen.demonii.com%3A1337","udp%3A%2F%2Ftracker.coppersurfer.tk%3A6969","udp%3A%2F%2Fexodus.desync.com%3A6969"],"infoHash":"22c9514010baaff33571af6c8aca0ccf8d055f47","infoHashBuffer":{"type":"Buffer","data":[34,201,81,64,16,186,175,243,53,113,175,108,138,202,12,207,141,5,95,71]},"announce":[],"urlList":[]}}